<?xml version="1.0" standalone="no"?>
<!DOCTYPE svg PUBLIC "-//W3C//DTD SVG 20010904//EN"
 "http://www.w3.org/TR/2001/REC-SVG-20010904/DTD/svg10.dtd">
<svg version="1.0" xmlns="http://www.w3.org/2000/svg"
 width="104.000000pt" height="110.000000pt" viewBox="0 0 104.000000 110.000000"
 preserveAspectRatio="xMidYMid meet">

<g transform="translate(0.000000,110.000000) scale(0.100000,-0.100000)"
fill="#f380c5" stroke="none">
<path d="M370 1036 c-114 -41 -122 -48 -75 -66 14 -5 45 -19 70 -30 l44 -20
40 21 c44 23 92 20 123 -8 15 -13 23 -11 75 19 32 19 67 37 77 41 27 11 12 22
-61 46 -88 30 -206 28 -293 -3z"/>
<path d="M710 912 c-78 -43 -85 -50 -88 -81 -2 -21 2 -37 10 -42 7 -4 44 -31
82 -59 l69 -52 18 23 c9 12 34 58 55 101 l38 78 -39 40 c-21 22 -44 40 -50 40
-5 0 -48 -21 -95 -48z"/>
<path d="M168 903 c-41 -43 -88 -116 -88 -136 0 -8 15 -31 34 -53 31 -36 35
-38 60 -26 33 15 71 15 98 1 18 -10 27 -4 73 41 30 29 51 58 49 65 -3 6 -6 25
-7 41 -2 26 -11 32 -87 66 -47 20 -87 37 -90 37 -3 1 -22 -16 -42 -36z"/>
<path d="M470 870 c-24 -24 -25 -38 -4 -68 18 -27 55 -29 77 -4 22 24 21 55
-1 75 -25 22 -48 21 -72 -3z"/>
<path d="M882 721 l-50 -90 25 -23 c14 -13 51 -53 83 -89 l58 -67 6 48 c11 82
-31 285 -64 305 -4 3 -31 -35 -58 -84z"/>
<path d="M570 735 c-17 -21 -77 -30 -107 -16 -24 11 -30 9 -73 -34 -45 -44
-47 -49 -46 -100 l0 -53 83 -41 c46 -22 83 -37 83 -33 0 21 68 45 108 39 l42
-5 46 66 46 66 -28 24 c-16 13 -54 41 -86 62 -48 34 -58 37 -68 25z"/>
<path d="M43 664 c-14 -51 -8 -215 10 -274 26 -85 31 -87 51 -23 10 32 25 70
32 85 12 24 12 31 -7 63 -15 25 -20 47 -17 75 3 35 -1 45 -29 72 l-32 31 -8
-29z"/>
<path d="M180 609 c-36 -66 54 -110 94 -46 7 11 6 23 -4 41 -18 34 -73 37 -90
5z"/>
<path d="M749 514 c-44 -61 -46 -68 -36 -100 11 -38 24 -43 149 -69 98 -19 97
-19 107 8 7 17 3 30 -17 57 -38 52 -143 170 -151 170 -3 -1 -27 -30 -52 -66z"/>
<path d="M285 470 c-3 -5 -21 -10 -39 -10 -28 0 -35 -5 -54 -46 -13 -25 -29
-77 -37 -116 -14 -66 -14 -71 4 -97 40 -56 44 -57 128 -16 43 20 108 59 144
87 l66 50 -9 39 c-9 35 -17 42 -90 79 -83 42 -103 47 -113 30z"/>
<path d="M578 429 c-10 -5 -23 -19 -29 -30 -14 -28 13 -69 46 -69 52 0 75 65
33 94 -26 19 -27 19 -50 5z"/>
<path d="M677 293 c-24 -25 -35 -28 -90 -28 -57 0 -66 -3 -117 -42 -30 -23
-88 -59 -128 -81 l-73 -39 58 -26 c129 -58 256 -56 390 4 61 27 154 104 194
161 l19 26 -91 21 c-50 12 -100 23 -112 26 -15 4 -30 -3 -50 -22z"/>
</g>
</svg>
